<svg width="30" height="30" viewBox="0 0 30 30" fill="none" xmlns="http://www.w3.org/2000/svg">
<g id="icon - linked in">
<path id="Vector" d="M24.8438 4.21875H5.15625C4.63848 4.21875 4.21875 4.63848 4.21875 5.15625V24.8438C4.21875 25.3615 4.63848 25.7812 5.15625 25.7812H24.8438C25.3615 25.7812 25.7812 25.3615 25.7812 24.8438V5.15625C25.7812 4.63848 25.3615 4.21875 24.8438 4.21875Z" stroke="#417086" stroke-width="2" stroke-linecap="round" stroke-linejoin="round"/>
<path id="Vector_2" d="M14.0625 13.125V20.625" stroke="#417086" stroke-width="2" stroke-linecap="round" stroke-linejoin="round"/>
<path id="Vector_3" d="M10.3125 13.125V20.625" stroke="#417086" stroke-width="2" stroke-linecap="round" stroke-linejoin="round"/>
<path id="Vector_4" d="M14.0625 16.4063C14.0625 15.536 14.4082 14.7014 15.0236 14.0861C15.6389 13.4707 16.4735 13.125 17.3438 13.125C18.214 13.125 19.0486 13.4707 19.6639 14.0861C20.2793 14.7014 20.625 15.536 20.625 16.4063V20.625" stroke="#417086" stroke-width="2" stroke-linecap="round" stroke-linejoin="round"/>
<path id="Vector_5" d="M10.3125 10.7812C11.0892 10.7812 11.7188 10.1517 11.7188 9.375C11.7188 8.59835 11.0892 7.96875 10.3125 7.96875C9.53585 7.96875 8.90625 8.59835 8.90625 9.375C8.90625 10.1517 9.53585 10.7812 10.3125 10.7812Z" fill="#417086"/>
</g>
</svg>
