<svg width="129" height="35" viewBox="0 0 129 35" fill="none" xmlns="http://www.w3.org/2000/svg">
<path d="M44.2824 19.3415H42.7736V25.0783H39.8438V10.166H45.6683C48.5806 10.166 50.4227 12.166 50.4227 14.7625C50.4227 16.8502 49.1947 18.4292 47.2473 18.9906L50.4403 25.0959H47.1946L44.2824 19.3415ZM45.1245 16.8327C46.5982 16.8327 47.4578 15.9906 47.4578 14.7625C47.4578 13.4994 46.5982 12.6748 45.1245 12.6748H42.7736V16.8152H45.1245V16.8327Z" fill="#063E58"/>
<path d="M60.9296 22.1158C60.4033 23.9053 58.7541 25.3966 56.2103 25.3966C53.3682 25.3966 50.8594 23.3615 50.8594 19.8702C50.8594 16.572 53.298 14.4141 55.9471 14.4141C59.1401 14.4141 61.0524 16.4492 61.0524 19.7825C61.0524 20.186 61.0173 20.6071 61.0173 20.6422H53.6138C53.6839 22.0106 54.8418 22.993 56.2278 22.993C57.5261 22.993 58.2454 22.3439 58.5787 21.4141L60.9296 22.1158ZM58.3331 18.7299C58.2804 17.7123 57.6138 16.6948 56.0173 16.6948C54.5611 16.6948 53.7717 17.7825 53.7015 18.7299H58.3331Z" fill="#063E58"/>
<path d="M64.9119 19.1334L67.4557 18.7474C68.0522 18.6597 68.2277 18.3614 68.2277 18.0106C68.2277 17.2737 67.6663 16.6597 66.4733 16.6597C65.2452 16.6597 64.5785 17.4316 64.4908 18.3439L61.9996 17.8176C62.175 16.2035 63.6663 14.4141 66.4382 14.4141C69.7189 14.4141 70.947 16.2737 70.947 18.3439V23.4316C70.947 23.9755 71.0172 24.7123 71.0698 25.0808H68.5084C68.4382 24.8001 68.4031 24.2387 68.4031 23.8351C67.8768 24.6597 66.8943 25.379 65.3505 25.379C63.1399 25.379 61.7891 23.8878 61.7891 22.2562C61.8242 20.4141 63.1926 19.3965 64.9119 19.1334ZM68.2452 20.9053V20.4492L65.9119 20.8C65.1926 20.9053 64.6312 21.3088 64.6312 22.0983C64.6312 22.7123 65.0698 23.2913 65.9821 23.2913C67.1575 23.3088 68.2452 22.7299 68.2452 20.9053Z" fill="#063E58"/>
<path d="M72.9688 25.0972V9.85156H75.7582V25.0797H72.9688V25.0972Z" fill="#063E58"/>
<path d="M85.5459 14.5359C85.4056 13.7113 84.7214 12.4306 82.8266 12.4306C81.4231 12.4306 80.4933 13.3429 80.4933 14.3253C80.4933 15.1499 81.0196 15.799 82.1073 16.0095L84.1951 16.4131C86.9144 16.9394 88.3705 18.7113 88.3705 20.8166C88.3705 23.1148 86.4582 25.4306 82.9845 25.4306C79.0372 25.4306 77.2828 22.8868 77.0547 20.7639L79.7565 20.0446C79.8793 21.5183 80.9144 22.8341 83.0196 22.8341C84.581 22.8341 85.4407 22.0622 85.4407 21.0096C85.4407 20.1499 84.7916 19.4657 83.6337 19.2376L81.5459 18.8166C79.1775 18.3253 77.6336 16.799 77.6336 14.5534C77.6336 11.9043 80.0196 9.88672 82.8266 9.88672C86.4407 9.88672 87.8266 12.0797 88.1775 13.7639L85.5459 14.5359Z" fill="#063E58"/>
<path d="M93.3366 14.7284H95.4244V17.2196H93.3366V21.5529C93.3366 22.4652 93.7577 22.7459 94.5647 22.7459C94.898 22.7459 95.284 22.7108 95.4244 22.6582V24.974C95.1787 25.0793 94.67 25.2196 93.8454 25.2196C91.8279 25.2196 90.5647 24.0266 90.5647 22.0266V17.2196H88.6875V14.7284H89.2138C90.3015 14.7284 90.8103 14.0091 90.8103 13.0792V11.6406H93.3366V14.7284Z" fill="#063E58"/>
<path d="M99.49 19.1334L102.034 18.7474C102.63 18.6597 102.806 18.3614 102.806 18.0106C102.806 17.2737 102.244 16.6597 101.051 16.6597C99.8233 16.6597 99.1567 17.4316 99.069 18.3439L96.5777 17.8176C96.7532 16.2035 98.2444 14.4141 101.016 14.4141C104.297 14.4141 105.525 16.2737 105.525 18.3439V23.4316C105.525 23.9755 105.595 24.7123 105.648 25.0808H103.087C103.016 24.8001 102.981 24.2387 102.981 23.8351C102.455 24.6597 101.472 25.379 99.9286 25.379C97.7181 25.379 96.3672 23.8878 96.3672 22.2562C96.3847 20.4141 97.7532 19.3965 99.49 19.1334ZM102.806 20.9053V20.4492L100.472 20.8C99.7532 20.9053 99.1918 21.3088 99.1918 22.0983C99.1918 22.7123 99.6304 23.2913 100.543 23.2913C101.718 23.3088 102.806 22.7299 102.806 20.9053Z" fill="#063E58"/>
<path d="M110.915 14.7284H113.002V17.2196H110.915V21.5529C110.915 22.4652 111.336 22.7459 112.143 22.7459C112.476 22.7459 112.862 22.7108 113.002 22.6582V24.974C112.757 25.0793 112.248 25.2196 111.424 25.2196C109.406 25.2196 108.143 24.0266 108.143 22.0266V17.2196H106.266V14.7284H106.792C107.88 14.7284 108.388 14.0091 108.388 13.0792V11.6406H110.915V14.7284Z" fill="#063E58"/>
<path d="M115.93 9.60547C116.895 9.60547 117.65 10.3774 117.65 11.3599C117.65 12.2897 116.895 13.0616 115.93 13.0616C114.983 13.0616 114.211 12.2897 114.211 11.3599C114.211 10.3774 114.983 9.60547 115.93 9.60547ZM114.544 25.0967V14.7458H117.334V25.0967H114.544Z" fill="#063E58"/>
<path d="M121.51 19.9209C121.51 21.7981 122.738 22.8508 124.159 22.8508C125.598 22.8508 126.3 21.9034 126.545 21.0964L129.001 21.9209C128.545 23.6402 126.914 25.4122 124.159 25.4122C121.107 25.4122 118.703 23.0964 118.703 19.9209C118.703 16.7279 121.054 14.4297 124.072 14.4297C126.896 14.4297 128.493 16.1841 128.931 17.9209L126.422 18.763C126.177 17.9034 125.51 17.0086 124.124 17.0086C122.703 17.0086 121.51 18.0437 121.51 19.9209Z" fill="#063E58"/>
<path d="M8.7363 21.2559V27.7471C8.40296 27.4839 8.05208 27.1682 7.71875 26.8699V21.5892L8.7363 21.2559Z" fill="#063E58"/>
<path d="M11.541 20.2891V29.3944C11.2076 29.254 10.8568 29.0961 10.5234 28.9031V20.6399L11.541 20.2891Z" fill="#063E58"/>
<path d="M22.6977 16.1674V18.7814L19.9082 17.8165V30.0095C19.5573 30.0972 19.2064 30.1674 18.8906 30.2376V14.8516L22.6977 16.1674Z" fill="#063E58"/>
<path d="M25.5102 21.5892V26.8699C25.1768 27.1682 24.8259 27.484 24.4926 27.7471V21.712L22.7207 21.1155V28.8875C22.4049 29.0454 22.054 29.2208 21.7031 29.3787V20.2734L25.5102 21.5892Z" fill="#063E58"/>
<path d="M27.2646 24.818V20.3443L24.4751 19.3969V14.9057L17.1242 12.3793V30.4145C16.7909 30.432 16.44 30.432 16.1067 30.4145V9.15126L19.9312 11.2916V12.8706L21.6856 13.4846V10.239L14.3172 6.13371V12.9934L8.73823 14.9057V18.8355L10.5102 18.2215V16.1688L14.3172 14.853V30.239C14.0014 30.1689 13.6505 30.0987 13.3172 30.011V17.818L5.96629 20.3443V24.818C4.47506 22.6601 3.70312 20.1513 3.70312 17.5197C3.70312 10.3969 9.49262 4.58984 16.633 4.58984C23.7383 4.58984 29.5278 10.3793 29.5278 17.5197C29.5278 20.1513 28.7558 22.6601 27.2646 24.818Z" fill="#063E58"/>
<path d="M16.6141 0.904297C7.43862 0.904297 0 8.34292 0 17.5008C0 26.6763 7.43862 34.0974 16.6141 34.0974C25.7895 34.0974 33.2106 26.6763 33.2106 17.5008C33.2106 8.34292 25.7895 0.904297 16.6141 0.904297ZM16.6141 32.2026C8.5088 32.2026 1.91229 25.6061 1.91229 17.5008C1.91229 9.41309 8.49125 2.81658 16.6141 2.81658C24.7018 2.81658 31.2983 9.39555 31.2983 17.5008C31.2983 25.6061 24.7194 32.2026 16.6141 32.2026Z" fill="#063E58"/>
</svg>
