<svg width="30" height="30" viewBox="0 0 30 30" fill="none" xmlns="http://www.w3.org/2000/svg">
<g id="icon - twitter">
<path id="Vector" d="M15.0041 10.3128C15.0042 9.23584 15.3751 8.19171 16.0544 7.35601C16.7338 6.5203 17.6801 5.94397 18.7344 5.72391C19.7887 5.50386 20.8866 5.6535 21.8435 6.14767C22.8005 6.64185 23.5581 7.45042 23.989 8.43746L28.1291 8.4375L24.3483 12.2183C24.1021 16.021 22.4179 19.5875 19.6377 22.1935C16.8575 24.7996 13.1897 26.2499 9.37905 26.25C5.62905 26.25 4.69155 24.8438 4.69155 24.8438C4.69155 24.8438 8.44155 23.4375 10.3166 20.625C10.3166 20.625 2.81655 16.875 4.69155 6.5625C4.69155 6.5625 9.37905 11.25 15.0024 12.1875L15.0041 10.3128Z" stroke="#417086" stroke-width="2" stroke-linecap="round" stroke-linejoin="round"/>
</g>
</svg>
