<svg width="24" height="24" viewBox="0 0 24 24" fill="none" xmlns="http://www.w3.org/2000/svg">
<g id="delete-button">
<rect id="bg" width="24" height="24" rx="4" fill="white"/>
<path id="trash-icon" d="M7.70425 8.99999H16.2958L15.8225 16.9242C15.7868 17.5383 15.3203 18 14.7533 18H9.26674C8.70089 18 8.2326 17.5383 8.19733 16.9242L7.70425 8.99999ZM13.3437 6C13.6138 6 13.8616 6.16049 13.9821 6.4146L14.1429 6.75H16.2857C16.6808 6.75 17 7.08586 17 7.5C17 7.91414 16.6808 8.25 16.2857 8.25H7.71429C7.31987 8.25 7 7.91414 7 7.5C7 7.08586 7.31987 6.75 7.71429 6.75H9.85715L10.0179 6.4146C10.1384 6.16049 10.3862 6 10.6563 6H13.3437V6ZM13.7958 10.875V16.125C13.7958 16.3313 13.9565 16.5 14.1529 16.5C14.3493 16.5 14.51 16.3313 14.51 16.125V10.875C14.51 10.6688 14.3493 10.5 14.1529 10.5C13.9565 10.5 13.7958 10.6688 13.7958 10.875ZM11.6328 10.875V16.125C11.6328 16.3313 11.8136 16.5 11.99 16.5C12.2065 16.5 12.3672 16.3313 12.3672 16.125V10.875C12.3672 10.6688 12.2065 10.5 11.99 10.5C11.8136 10.5 11.6328 10.6688 11.6328 10.875ZM9.48996 10.875V16.125C9.48996 16.3313 9.67077 16.5 9.8471 16.5C10.0636 16.5 10.2042 16.3313 10.2042 16.125V10.875C10.2042 10.6688 10.0636 10.5 9.8471 10.5C9.67077 10.5 9.48996 10.6688 9.48996 10.875Z" fill="#FF3F34"/>
</g>
</svg>
