<svg width="160" height="130" viewBox="0 0 160 130" fill="none" xmlns="http://www.w3.org/2000/svg">
<g id="Photo-add">
<rect id="frame" x="0.5" y="0.5" width="159" height="129" rx="4.5" fill="#FCFCFD" stroke="#E3E5E8"/>
<g id="photo-add-icon">
<path id="circle-border (Stroke)" fill-rule="evenodd" clip-rule="evenodd" d="M112 65C112 82.6731 97.6731 97 80 97C62.3269 97 48 82.6731 48 65C48 47.3269 62.3269 33 80 33C97.6731 33 112 47.3269 112 65ZM80 94C96.0163 94 109 81.0163 109 65C109 48.9837 96.0163 36 80 36C63.9837 36 51 48.9837 51 65C51 81.0163 63.9837 94 80 94Z" fill="#E3E5E8"/>
<path id="Vector" d="M88.4576 53H69.1699C67.439 53 66 54.3943 66 56.1146V71.6874C66 73.4077 67.439 74.8019 69.1694 74.8019H82.1944C81.9032 74.0305 81.7443 73.1973 81.7443 72.3282C81.7443 72.1122 81.7547 71.8985 81.7739 71.6873H70.1197C69.8172 71.6873 69.5405 71.5229 69.4034 71.2615C69.2663 71.0003 69.2921 70.6868 69.4704 70.4498L72.9864 65.778C73.1379 65.575 73.379 65.4582 73.6351 65.4582C73.8913 65.4582 74.1332 65.577 74.2846 65.7782L75.915 67.9442L80.6013 61.175C80.7525 60.9178 81.0037 60.7864 81.2699 60.7864C81.5361 60.7864 81.7897 60.9164 81.9384 61.1331L85.3806 66.1357C86.492 65.4944 87.7906 65.1257 89.1781 65.1257C90.0529 65.1257 90.8922 65.2726 91.6717 65.5415V56.1146C91.6722 54.3942 90.2758 53 88.4576 53ZM89.1781 67.6564C89.8461 67.6564 90.3836 68.1795 90.3836 68.8243V71.1602H92.7945C93.4625 71.1602 94 71.6834 94 72.3282C94 72.9754 93.4625 73.4961 92.7945 73.4961H90.3836V75.832C90.3836 76.4793 89.8461 77 89.1781 77C88.51 77 87.9726 76.4793 87.9726 75.832V73.4961H85.5616C84.8936 73.4961 84.3562 72.9754 84.3562 72.3282C84.3562 71.6833 84.8936 71.1602 85.5616 71.1602H87.9726V68.8243C87.9726 68.1795 88.51 67.6564 89.1781 67.6564ZM71.5808 56.1146C72.9124 56.1146 73.9918 57.1604 73.9918 58.4505C73.9918 59.7406 72.9571 60.7864 71.5808 60.7864C70.2046 60.7864 69.1699 59.7406 69.1699 58.4505C69.1699 57.1604 70.294 56.1146 71.5808 56.1146Z" fill="#BDC0C7"/>
</g>
</g>
</svg>
