<svg width="12" height="12" viewBox="0 0 12 12" fill="none" xmlns="http://www.w3.org/2000/svg">
<path id="plus" d="M12 6C12 6.51029 11.5866 6.92337 11.0769 6.92337H6.92308V11.0772C6.92308 11.5875 6.50971 12 6 12C5.49029 12 5.07692 11.5875 5.07692 11.0772V6.92337H0.923077C0.413365 6.92337 0 6.51029 0 6C0 5.48971 0.413365 5.07721 0.923077 5.07721H5.07692V0.923365C5.07692 0.413077 5.49029 0 6 0C6.50971 0 6.92308 0.413077 6.92308 0.923365V5.07721H11.0769C11.5875 5.07692 12 5.48942 12 6Z" fill="#94A2B3"/>
</svg>
