<svg width="81" height="24" viewBox="0 0 81 24" fill="none" xmlns="http://www.w3.org/2000/svg">
<line x1="1" y1="19.4004" x2="23" y2="19.4004" stroke="#1C4456" stroke-width="2" stroke-linecap="round"/>
<line x1="1" y1="13.4004" x2="23" y2="13.4004" stroke="#1C4456" stroke-width="2" stroke-linecap="round"/>
<line x1="1" y1="6.2002" x2="23" y2="6.2002" stroke="#1C4456" stroke-width="2" stroke-linecap="round"/>
<path d="M35.294 19V10.693L39.263 19H40.127L44.105 10.693V19H46.13V6.04H44.177L39.695 15.22L35.213 6.04H33.26V19H35.294ZM57.4784 14.743C57.7304 11.242 55.9664 9.01 52.9514 9.01C50.0894 9.01 48.1184 11.062 48.1184 14.248C48.1184 17.2 50.1254 19.27 53.0774 19.27C54.9494 19.27 56.6234 18.262 57.3704 16.498L55.2284 15.85C54.8054 16.75 54.0134 17.236 52.9514 17.236C51.4754 17.236 50.6114 16.345 50.4404 14.743H57.4784ZM53.0414 10.909C54.3824 10.909 55.0934 11.584 55.2734 13.105H50.4944C50.7464 11.665 51.5834 10.909 53.0414 10.909ZM64.3169 9.001C62.9129 9.001 61.8509 9.523 61.1399 10.36V9.28H59.2049V19H61.4009V14.005C61.4009 11.647 62.5709 11.044 63.6779 11.044C65.7479 11.044 65.9459 13.123 65.9459 14.32V19H68.1419V13.573C68.1419 12.421 67.8989 9.001 64.3169 9.001ZM77.0515 14.275C77.0515 16.633 75.8815 17.236 74.7745 17.236C72.7045 17.236 72.5065 15.157 72.5065 13.96V9.28H70.3105V14.707C70.3105 15.859 70.5535 19.279 74.1355 19.279C75.5395 19.279 76.6015 18.757 77.3125 17.92V19H79.2295V9.28H77.0515V14.275Z" fill="#1C4456"/>
</svg>
