<svg width="23" height="24" viewBox="0 0 23 24" fill="none" xmlns="http://www.w3.org/2000/svg">
<path id="Vector" d="M21.3571 4.60714H14.7857V2.14286C14.7849 1.7075 14.6116 1.28939 14.3035 0.981358C13.9963 0.674143 13.5782 0.500821 13.1429 0.5H1.64286C1.2075 0.500821 0.789393 0.673322 0.481358 0.981358C0.173322 1.28939 0.000821429 1.7075 0 2.14286V21.8571C0.000821429 22.2925 0.174143 22.7106 0.481358 23.0178C0.789393 23.3259 1.2075 23.4992 1.64286 23.5H21.3571C21.7925 23.4992 22.2098 23.3259 22.5178 23.0178C22.8259 22.7098 22.9992 22.2925 23 21.8571V6.25C22.9992 5.81464 22.8259 5.39654 22.5178 5.0885C22.2106 4.78129 21.7925 4.60796 21.3571 4.60714ZM9.03571 21.8571H5.75V17.75H9.03571V21.8571ZM13.1429 21.8571H10.6786V17.75C10.6778 17.3146 10.5044 16.8965 10.1964 16.5893C9.88918 16.2813 9.47107 16.108 9.03571 16.1071H5.75C5.31464 16.108 4.89654 16.2813 4.5885 16.5893C4.28129 16.8965 4.10796 17.3146 4.10714 17.75V21.8571H1.64286L1.64204 2.14286H13.1429V21.8571ZM21.3571 21.8571H14.7857V6.25H21.3571V21.8571ZM18.8929 12C18.8929 12.1626 18.8444 12.3212 18.754 12.4567C18.6645 12.5914 18.5355 12.6966 18.386 12.759C18.2357 12.8214 18.0706 12.837 17.9113 12.8058C17.7519 12.7738 17.6057 12.6958 17.4907 12.5808C17.3757 12.4658 17.2976 12.3195 17.2656 12.1602C17.2344 12.0008 17.25 11.8357 17.3124 11.6854C17.3749 11.5359 17.48 11.4069 17.6147 11.3174C17.7502 11.227 17.9088 11.1786 18.0714 11.1786C18.2891 11.1786 18.4986 11.2648 18.6522 11.4192C18.8066 11.5729 18.8929 11.7823 18.8929 12ZM17.25 8.71429C17.25 8.55164 17.2985 8.39311 17.3888 8.25757C17.4784 8.12286 17.6073 8.01771 17.7568 7.95529C17.9071 7.89286 18.0723 7.87725 18.2316 7.90846C18.391 7.9405 18.5372 8.01854 18.6522 8.13354C18.7672 8.24854 18.8452 8.39475 18.8773 8.55411C18.9085 8.71346 18.8929 8.87857 18.8304 9.02889C18.768 9.17839 18.6629 9.30736 18.5281 9.39689C18.3926 9.48725 18.2341 9.53571 18.0714 9.53571C17.8538 9.53571 17.6443 9.44946 17.4907 9.29504C17.3363 9.14143 17.25 8.93196 17.25 8.71429ZM10.6786 12C10.6786 12.1626 10.6301 12.3212 10.5398 12.4567C10.4502 12.5914 10.3212 12.6966 10.1718 12.759C10.0214 12.8214 9.85632 12.837 9.69697 12.8058C9.53761 12.7738 9.39139 12.6958 9.27639 12.5808C9.16139 12.4658 9.08336 12.3195 9.05132 12.1602C9.02011 12.0008 9.03572 11.8357 9.09814 11.6854C9.16057 11.5359 9.26571 11.4069 9.40043 11.3174C9.53596 11.227 9.6945 11.1786 9.85714 11.1786C10.0748 11.1786 10.2843 11.2648 10.4379 11.4192C10.5923 11.5729 10.6786 11.7823 10.6786 12ZM10.6786 8.71429C10.6786 8.87693 10.6301 9.03546 10.5398 9.171C10.4502 9.30571 10.3212 9.41086 10.1718 9.47329C10.0214 9.53571 9.85632 9.55132 9.69697 9.52011C9.53761 9.48807 9.39139 9.41004 9.27639 9.29504C9.16139 9.18004 9.08336 9.03382 9.05132 8.87446C9.02011 8.71511 9.03572 8.55 9.09814 8.39968C9.16057 8.25018 9.26571 8.12121 9.40043 8.03168C9.53596 7.94132 9.6945 7.89286 9.85714 7.89286C10.0748 7.89286 10.2843 7.97911 10.4379 8.13354C10.5923 8.28714 10.6786 8.49661 10.6786 8.71429ZM10.6786 5.42857C10.6786 5.59121 10.6301 5.74975 10.5398 5.88529C10.4502 6.02 10.3212 6.12514 10.1718 6.18757C10.0214 6.25 9.85632 6.26561 9.69697 6.23439C9.53761 6.20236 9.39139 6.12432 9.27639 6.00932C9.16139 5.89432 9.08336 5.74811 9.05132 5.58875C9.02011 5.42939 9.03572 5.26429 9.09814 5.11396C9.16057 4.96446 9.26571 4.8355 9.40043 4.74596C9.53596 4.65561 9.6945 4.60714 9.85714 4.60714C10.0748 4.60714 10.2843 4.69339 10.4379 4.84782C10.5923 5.00143 10.6786 5.21089 10.6786 5.42857ZM5.75 12C5.75 12.1626 5.70154 12.3212 5.61118 12.4567C5.52164 12.5914 5.39268 12.6966 5.24318 12.759C5.09286 12.8214 4.92775 12.837 4.76839 12.8058C4.60904 12.7738 4.46282 12.6958 4.34782 12.5808C4.23282 12.4658 4.15479 12.3195 4.12275 12.1602C4.09154 12.0008 4.10714 11.8357 4.16957 11.6854C4.232 11.5359 4.33714 11.4069 4.47186 11.3174C4.60739 11.227 4.76593 11.1786 4.92857 11.1786C5.14625 11.1786 5.35571 11.2648 5.50932 11.4192C5.66375 11.5729 5.75 11.7823 5.75 12ZM5.75 8.71429C5.75 8.87693 5.70154 9.03546 5.61118 9.171C5.52164 9.30571 5.39268 9.41086 5.24318 9.47329C5.09286 9.53571 4.92775 9.55132 4.76839 9.52011C4.60904 9.48807 4.46282 9.41004 4.34782 9.29504C4.23282 9.18004 4.15479 9.03382 4.12275 8.87446C4.09154 8.71511 4.10714 8.55 4.16957 8.39968C4.232 8.25018 4.33714 8.12121 4.47186 8.03168C4.60739 7.94132 4.76593 7.89286 4.92857 7.89286C5.14625 7.89286 5.35571 7.97911 5.50932 8.13354C5.66375 8.28714 5.75 8.49661 5.75 8.71429ZM5.75 5.42857C5.75 5.59121 5.70154 5.74975 5.61118 5.88529C5.52164 6.02 5.39268 6.12514 5.24318 6.18757C5.09286 6.25 4.92775 6.26561 4.76839 6.23439C4.60904 6.20236 4.46282 6.12432 4.34782 6.00932C4.23282 5.89432 4.15479 5.74811 4.12275 5.58875C4.09154 5.42939 4.10714 5.26429 4.16957 5.11396C4.232 4.96446 4.33714 4.8355 4.47186 4.74596C4.60739 4.65561 4.76593 4.60714 4.92857 4.60714C5.14625 4.60714 5.35571 4.69339 5.50932 4.84782C5.66375 5.00143 5.75 5.21089 5.75 5.42857Z" fill="#1C4456"/>
</svg>
