<svg width="23" height="24" viewBox="0 0 23 24" fill="none" xmlns="http://www.w3.org/2000/svg">
<path id="Vector" d="M22.2383 0.5H16.8691C16.4485 0.5 16.1074 0.841123 16.1074 1.26172V5.86911H11.5001C11.0795 5.86911 10.7384 6.21023 10.7384 6.63083V11.2382H6.13089C5.7103 11.2382 5.36918 11.5793 5.36918 11.9999V16.6074H0.761711C0.34112 16.6074 0 16.9486 0 17.3692V22.7383C0 23.1589 0.34112 23.5 0.761711 23.5H22.2383C22.6589 23.5 23 23.1589 23 22.7383V1.26172C23 0.841123 22.6589 0.5 22.2383 0.5ZM21.4766 21.9768H1.52342V18.1311H6.13089C6.55148 18.1311 6.8926 17.79 6.8926 17.3694V12.7619H11.4999C11.9205 12.7619 12.2616 12.4208 12.2616 12.0002V7.39267H16.869C17.2896 7.39267 17.6307 7.05155 17.6307 6.63095V2.02344H21.4764L21.4766 21.9768Z" fill="#1C4456"/>
</svg>
